<?xml version="1.0" standalone="no"?>
<!DOCTYPE svg PUBLIC "-//W3C//DTD SVG 20010904//EN"
 "http://www.w3.org/TR/2001/REC-SVG-20010904/DTD/svg10.dtd">
<svg version="1.0" xmlns="http://www.w3.org/2000/svg"
 width="332.000000pt" height="332.000000pt" viewBox="0 0 332.000000 332.000000"
 preserveAspectRatio="xMidYMid meet">
<metadata>
Created by potrace 1.14, written by Peter Selinger 2001-2017
</metadata>
<g transform="translate(0.000000,332.000000) scale(0.100000,-0.100000)"
fill="#000000" stroke="none">
<path d="M1650 3213 c-144 -35 -216 -68 -317 -146 l-71 -55 -44 16 c-56 21
-193 21 -214 0 -10 -9 -15 -35 -15 -69 0 -48 -5 -60 -43 -109 -50 -65 -119
-180 -160 -265 -15 -33 -33 -68 -38 -79 -11 -21 -46 -130 -52 -160 -2 -12 -11
-50 -19 -86 -8 -36 -18 -82 -21 -102 -3 -21 -10 -57 -15 -80 -5 -24 -12 -59
-15 -78 -3 -19 -8 -46 -11 -60 -10 -48 -19 -95 -20 -105 -1 -5 -3 -14 -4 -20
-1 -5 -7 -3 -14 5 -36 46 -95 62 -140 39 -111 -57 -147 -218 -102 -458 41
-215 91 -288 185 -271 30 6 43 3 54 -9 13 -15 66 -125 66 -137 0 -37 160 -318
217 -379 10 -11 34 -40 54 -65 51 -64 225 -239 279 -282 62 -48 123 -81 200
-105 59 -19 85 -26 145 -39 59 -13 121 -18 220 -18 132 -1 161 10 335 129 273
186 340 253 416 422 23 52 49 102 57 111 36 39 184 377 187 424 1 4 6 25 13
45 7 21 12 48 11 61 -1 12 -2 30 -3 40 -1 9 -14 31 -30 49 l-28 32 24 88 c13
48 25 97 27 108 3 11 13 61 24 110 11 50 23 112 27 138 3 27 9 59 11 70 3 12
7 67 11 122 3 55 12 113 20 128 52 103 77 267 58 382 -17 97 -75 202 -141 252
-132 98 -366 230 -426 240 -9 1 -41 16 -70 33 -112 64 -218 112 -286 129 -84
22 -261 24 -342 4z"/>
</g>
</svg>
